<svg xmlns="http://www.w3.org/2000/svg" fill="none" width="115" height="48"><<path xmlns="http://www.w3.org/2000/svg" d="M0 0 C0 0.66 0 1.32 0 2 C0.928125 2.12375 1.85625 2.2475 2.8125 2.375 C6 3 6 3 9 5 C9 5.99 9 6.98 9 8 C9.99 7.67 10.98 7.34 12 7 C13.36733028 7.95298777 14.70264493 8.95374591 16 10 C16.66 10 17.32 10 18 10 C18 6.37 18 2.74 18 -1 C21 -2 21 -2 22.90234375 -1.36328125 C30.98530955 2.81007345 30.98530955 2.81007345 33 6 C33.64035971 10.9833121 33.83045013 14.75432481 31 19 C31.66 19.33 32.32 19.66 33 20 C33.07410115 25.78406969 33.12857885 31.56786371 33.16479492 37.35229492 C33.17989082 39.32044283 33.20036948 41.28855706 33.22631836 43.2565918 C33.26266649 46.08390612 33.27971814 48.9107761 33.29296875 51.73828125 C33.30845261 52.61962234 33.32393646 53.50096344 33.33988953 54.40901184 C33.34011612 55.22963608 33.34034271 56.05026031 33.34057617 56.89575195 C33.35056892 57.97830009 33.35056892 57.97830009 33.36076355 59.0827179 C32.89372004 61.56482611 31.92793761 62.42229821 30 64 C28.6846659 64.70151152 27.34882408 65.36525925 26 66 C25.21625 66.495 24.4325 66.99 23.625 67.5 C21 69 21 69 17.75 70.0625 C14.86381294 70.68714055 14.86381294 70.68714055 14 73 C13.01 73.33 12.02 73.66 11 74 C11 74.66 11 75.32 11 76 C9.66666667 76.66666667 8.33333333 77.33333333 7 78 C5.989375 78.53625 4.97875 79.0725 3.9375 79.625 C1 81 1 81 -2 81 C-2 62.85 -2 44.7 -2 26 C2 25 2 25 4.25 25.9375 C5.11625 26.4634375 5.11625 26.4634375 6 27 C6 27.66 6 28.32 6 29 C6.99 29 7.98 29 9 29 C10.65551758 30.13989258 10.65551758 30.13989258 12 32 C12.43237305 34.63549805 12.43237305 34.63549805 12.51171875 37.76171875 C12.54716797 38.87998047 12.58261719 39.99824219 12.61914062 41.15039062 C12.65297852 42.90125977 12.65297852 42.90125977 12.6875 44.6875 C12.72166016 45.86634766 12.75582031 47.04519531 12.79101562 48.25976562 C12.87357925 51.17308225 12.94270322 54.08609466 13 57 C14.65 56.34 16.3 55.68 18 55 C18 45.76 18 36.52 18 27 C16.68 26.67 15.36 26.34 14 26 C13.34 25.34 12.68 24.68 12 24 C11.01 23.67 10.02 23.34 9 23 C8.34 22.34 7.68 21.68 7 21 C6.319375 20.835 5.63875 20.67 4.9375 20.5 C4.298125 20.335 3.65875 20.17 3 20 C2.505 19.01 2.505 19.01 2 18 C0.66923011 17.65657551 -0.66431979 17.32380126 -2 17 C-2.66 16.34 -3.32 15.68 -4 15 C-8.66787042 14.41730265 -8.66787042 14.41730265 -12.6875 16.375 C-13.120625 16.91125 -13.55375 17.4475 -14 18 C-15.9375 19.0625 -15.9375 19.0625 -18 20 C-18.7425 20.37125 -19.485 20.7425 -20.25 21.125 C-20.8275 21.41375 -21.405 21.7025 -22 22 C-21.38125 22.12375 -20.7625 22.2475 -20.125 22.375 C-18 23 -18 23 -16 25 C-15.13890625 25.40089844 -14.2778125 25.80179688 -13.390625 26.21484375 C-11 28 -11 28 -10.546875 31.06640625 C-10.61390625 32.22011719 -10.6809375 33.37382813 -10.75 34.5625 C-11.1686887 38.94002619 -11.1686887 38.94002619 -10 43 C-9.91308999 45.84429357 -9.88446198 48.66379176 -9.90234375 51.5078125 C-9.9037587 52.34843231 -9.90517365 53.18905212 -9.90663147 54.05514526 C-9.91223763 56.74513275 -9.92479114 59.43503759 -9.9375 62.125 C-9.94251421 63.94661338 -9.94707725 65.76822807 -9.95117188 67.58984375 C-9.96220906 72.05992777 -9.9794778 76.52994986 -10 81 C-15.42040818 81.21862564 -17.62569657 80.25746 -22 77 C-24.99772183 75.07289311 -27.48160792 73.65155409 -31 73 C-31 72.34 -31 71.68 -31 71 C-31.66 71 -32.32 71 -33 71 C-33 70.34 -33 69.68 -33 69 C-34.485 69.495 -34.485 69.495 -36 70 C-39.86428638 68.42274025 -41.656292 67.515562 -44 64 C-44.1953125 60.64453125 -44.1953125 60.64453125 -44.125 56.8125 C-44.10695313 55.54019531 -44.08890625 54.26789063 -44.0703125 52.95703125 C-44.04710938 51.98121094 -44.02390625 51.00539062 -44 50 C-42.68 50 -41.36 50 -40 50 C-40 50.66 -40 51.32 -40 52 C-39.27425781 52.11214844 -38.54851563 52.22429687 -37.80078125 52.33984375 C-34.87436007 53.02961387 -32.77712191 54.05510814 -30.1875 55.5625 C-29.39730469 56.01753906 -28.60710938 56.47257812 -27.79296875 56.94140625 C-26.90544922 57.46541016 -26.90544922 57.46541016 -26 58 C-25.67 55.36 -25.34 52.72 -25 50 C-25.94875 49.690625 -26.8975 49.38125 -27.875 49.0625 C-31 48 -31 48 -33 47 C-33 46.34 -33 45.68 -33 45 C-34.36125 44.814375 -34.36125 44.814375 -35.75 44.625 C-38.62087959 44.07290777 -40.58740117 43.60839922 -43 42 C-44.43834893 37.6849532 -44.26474521 33.52078677 -44.3125 29 C-44.34150391 28.08476563 -44.37050781 27.16953125 -44.40039062 26.2265625 C-44.40876953 25.34742187 -44.41714844 24.46828125 -44.42578125 23.5625 C-44.44036377 22.75941406 -44.45494629 21.95632812 -44.4699707 21.12890625 C-44 19 -44 19 -42.09838867 17.21484375 C-40 16 -40 16 -38 16 C-37.67 15.34 -37.34 14.68 -37 14 C-35.66666667 13.66666667 -34.33333333 13.33333333 -33 13 C-32.67 12.34 -32.34 11.68 -32 11 C-30.35 11 -28.7 11 -27 11 C-27 10.01 -27 9.02 -27 8 C-26.401875 7.896875 -25.80375 7.79375 -25.1875 7.6875 C-22.71756736 6.91123545 -21.67748765 5.92911079 -20 4 C-19.01 4.33 -18.02 4.66 -17 5 C-16.814375 4.401875 -16.62875 3.80375 -16.4375 3.1875 C-12.61127982 -2.63500896 -5.79570464 -2.89785232 0 0 Z M-29.125 24.6875 C-31.28115645 26.83579789 -31.28115645 26.83579789 -30.9375 29.5625 C-29.97076039 32.076023 -29.05615305 33.30143878 -27 35 C-25.71387324 33.94021067 -25.71387324 33.94021067 -25.90234375 31.49609375 C-25.91394531 30.48675781 -25.92554688 29.47742188 -25.9375 28.4375 C-25.94652344 27.42558594 -25.95554687 26.41367187 -25.96484375 25.37109375 C-25.97644531 24.58863281 -25.98804688 23.80617188 -26 23 C-27.32173764 22.89635298 -27.32173764 22.89635298 -29.125 24.6875 Z M-25 33 C-24 35 -24 35 -24 35 Z " fill="#FEFEFE" transform="translate(68,29)"/>/><defs><linearGradient id="a" x1="6.33" x2="19.43" y1="40.8" y2="34.6" gradientUnits="userSpaceOnUse"><stop stop-color="#D83333"/><stop offset="1" stop-color="#F041FF"/></linearGradient></defs></svg>
